<svg xmlns="http://www.w3.org/2000/svg" viewBox="0 0 1890 2048" fill="none">
  <path
    fill="currentColor"
    d="M 931.814 143.47 C 1009.41 140.558 1086.63 155.568 1157.48 187.335 C 1276.55 239.712 1379.1 343.739 1425.84 465.544 C 1476.34 594.234 1472.57 737.89 1415.39 863.753 C 1374.37 954.273 1307.82 1030.85 1223.9 1084.08 C 1193.07 1103.23 1159.51 1118.54 1125.68 1131.47 C 1137.56 1134.68 1153.43 1136.66 1165.87 1138.69 C 1252.88 1152.87 1338.56 1179.45 1420.39 1211.9 C 1436.46 1218.28 1463.96 1226.47 1475.3 1238.63 C 1482.17 1245.89 1485.77 1255.64 1485.28 1265.62 C 1484.1 1289.92 1460.62 1305.66 1439.3 1297.95 C 1398.75 1283.31 1358.76 1266.41 1317.75 1252.56 C 1222.57 1221.2 1123.72 1202.35 1023.68 1196.49 C 794.441 1181.1 538.421 1233.32 358.085 1383.54 C 253.14 1470.97 185.884 1597.03 179.623 1734.09 C 178.623 1756 173.934 1778.54 203.61 1776.97 C 224.901 1776.8 246.733 1777.08 268.012 1777.08 L 391.616 1777.1 L 771.5 1777.12 L 1074.59 1777.08 L 1171.35 1777.02 C 1185.83 1777 1231.85 1774.83 1242.86 1781.43 C 1251.74 1786.79 1258 1795.57 1260.18 1805.71 C 1264.1 1823.33 1252.99 1842.69 1234.72 1846.25 C 1223.3 1848.48 1207.73 1847.43 1195.86 1847.38 L 1136.31 1847.27 L 903.073 1847.19 L 421.564 1847.15 L 264.107 1847.25 C 237.355 1847.29 209.749 1847.9 183.075 1846.99 C 172.328 1846.62 156.307 1839.3 147.416 1833.1 C 128.559 1820.1 115.687 1800.09 111.664 1777.53 C 109.289 1764.03 109.959 1740.57 110.229 1726.46 C 112.732 1627.27 144.438 1531.03 201.375 1449.78 C 315.049 1285.74 490.791 1197.09 680.378 1150.04 C 711.184 1142.4 744.304 1137.85 775.554 1132.19 C 709.189 1105.12 668.813 1085.84 613.787 1037.67 C 527.614 963.068 469.152 861.556 447.869 749.579 C 422.705 617.292 447.106 486.448 521.467 374.001 C 617.412 228.917 760.46 154.356 931.814 143.47 z M 949.499 1091.23 C 1191.26 1091.51 1387.6 896.004 1388.35 654.248 C 1389.11 412.493 1194 215.763 952.245 214.522 C 709.807 213.279 512.399 409.063 511.64 651.503 C 510.88 893.942 707.058 1090.96 949.499 1091.23 z"
  />
  <path
    fill="#22d3ee"
    d="M 1538.52 1352.26 C 1539.22 1352.2 1539.91 1352.16 1540.61 1352.13 C 1562.28 1351.27 1575.46 1365.12 1577.82 1385.68 C 1580.33 1407.43 1579.55 1429.23 1579.54 1451.12 C 1579.31 1488.8 1579.41 1526.49 1579.82 1564.17 C 1587.73 1563.99 1595.89 1563.99 1603.9 1564.09 C 1656.94 1564.75 1710.57 1562.15 1763.46 1565.44 C 1768 1565.72 1774.38 1569.88 1777.66 1572.93 C 1784.78 1579.55 1788.94 1588.75 1789.2 1598.46 C 1789.58 1614.18 1778.58 1632.44 1762.62 1633.35 C 1702.2 1636.82 1639.27 1633.74 1578.89 1634.81 C 1580.75 1669.74 1579.16 1709.02 1579.66 1744.17 C 1579.41 1768.12 1580.12 1792.22 1578.42 1816.12 C 1577.91 1823.13 1575.81 1826.89 1572.27 1832.76 C 1566 1843.15 1557.46 1845.81 1546.7 1849.11 C 1531.5 1849.11 1512.45 1839.8 1510.16 1823.97 C 1507.47 1805.45 1508.49 1783.24 1508.51 1764.47 L 1508.23 1690.99 C 1508.33 1672.53 1509.07 1652.91 1508.47 1634.57 C 1495.67 1634.17 1482.84 1634.44 1470.03 1634.51 C 1441.2 1634.66 1412.31 1634.93 1383.49 1634.85 C 1364.45 1634.79 1346.26 1636.24 1327.32 1633.76 C 1288.98 1628.75 1286.97 1572.91 1324.46 1565.62 C 1330.46 1564.55 1336.56 1564.29 1342.65 1564.23 C 1389.6 1563.81 1436.56 1564.04 1483.52 1564.1 C 1492 1564.12 1500.46 1564.09 1508.94 1563.95 C 1507.21 1541.52 1509.18 1507.8 1508.83 1484.28 C 1509.05 1451.71 1507.35 1419.09 1509.12 1386.56 C 1510.2 1366.67 1519.7 1356.91 1538.52 1352.26 z"
  />
</svg>
